<svg id="bowl-candle" enable-background="new 0 0 300 300" height="512" viewBox="0 0 300 300" width="512" xmlns="http://www.w3.org/2000/svg"><g><circle cx="118" cy="86" r="4"/><path d="m66 49.512c2.211 0 4-1.791 4-4v-5.66c0-2.209-1.789-4-4-4s-4 1.791-4 4v5.66c0 2.209 1.789 4 4 4z"/><path d="m66 72.148c2.211 0 4-1.791 4-4v-5.66c0-2.209-1.789-4-4-4s-4 1.791-4 4v5.66c0 2.209 1.789 4 4 4z"/><path d="m51.852 58h5.66c2.211 0 4-1.791 4-4s-1.789-4-4-4h-5.66c-2.211 0-4 1.791-4 4s1.789 4 4 4z"/><path d="m74.488 58h5.66c2.211 0 4-1.791 4-4s-1.789-4-4-4h-5.66c-2.211 0-4 1.791-4 4s1.789 4 4 4z"/><path d="m200 62c7.719 0 14-6.281 14-14s-6.281-14-14-14-14 6.281-14 14 6.281 14 14 14zm0-20c3.309 0 6 2.691 6 6s-2.691 6-6 6-6-2.691-6-6 2.691-6 6-6z"/><path d="m215.824 114.176c.781.781 1.805 1.172 2.828 1.172s2.047-.391 2.828-1.172l4.52-4.52 4.52 4.52c.781.781 1.805 1.172 2.828 1.172s2.047-.391 2.828-1.172c1.562-1.562 1.562-4.094 0-5.656l-4.52-4.52 4.52-4.52c1.562-1.562 1.562-4.094 0-5.656s-4.094-1.562-5.656 0l-4.52 4.52-4.52-4.52c-1.562-1.562-4.094-1.562-5.656 0s-1.562 4.094 0 5.656l4.52 4.52-4.52 4.52c-1.562 1.562-1.562 4.093 0 5.656z"/><path d="m266 164c0-4.754-2.684-9.195-7.973-13.199-.225-.171-.486-.237-.731-.353-5.818-14.817-47.841-22.077-85.562-23.925.035-.493.148-.963.148-1.464 0-5.029-1.957-17.221-5.121-28.15-4.523-15.63-9.55-22.909-15.82-22.909s-11.297 7.279-15.82 22.908c-3.164 10.93-5.121 23.121-5.121 28.15 0 .471.108.913.139 1.377-38.373 1.706-81.117 8.856-87.339 23.773-5.825 4.163-8.8 8.798-8.8 13.792 0 3.7 1.711 7.108 4.769 10.229 6.604 52.325 54.398 91.771 111.231 91.771s104.627-39.446 111.231-91.771c3.058-3.121 4.769-6.529 4.769-10.229zm-115.152-82.01c5.184 1.484 13.035 31.662 13.035 43.068 0 7.137-5.805 12.941-12.941 12.941s-12.942-5.804-12.942-12.94c0-11.407 7.852-41.584 12.848-43.069zm-18.565 52.379c2.723 5.429 7.688 9.507 13.717 10.978v8.653c0 2.209 1.789 4 4 4s4-1.791 4-4v-8.309c6.832-1.012 12.547-5.3 15.56-11.247 51.789 2.299 80.44 12.95 80.44 19.556 0 6.98-34.344 20-100 20s-100-13.02-100-20c0-5.587 24.91-17.35 82.283-19.631zm-88.371 25.448c10.932 16.148 67.054 22.183 106.088 22.183 39.024 0 95.127-6.032 106.079-22.171 1.098 1.271 1.921 2.701 1.921 4.171 0 10.857-41.086 26-108 26s-108-15.143-108-26c0-1.461.792-2.891 1.912-4.183zm106.088 98.183c-49.984 0-92.375-32.659-101.945-77.138 20.991 11.217 62.329 17.138 101.945 17.138s80.954-5.921 101.945-17.138c-9.57 44.479-51.961 77.138-101.945 77.138z"/><path d="m150.941 133.135c3.256 0 5.895-2.639 5.895-5.895s-2.639-16.375-5.895-16.375-5.895 13.119-5.895 16.375 2.64 5.895 5.895 5.895z"/><path d="m202.004 238c.762 0 1.531-.217 2.215-.672 12.375-8.25 28.234-27.992 28.906-28.83 1.379-1.725 1.098-4.242-.625-5.621-1.727-1.381-4.242-1.098-5.625.625-.156.195-15.742 19.602-27.094 27.17-1.84 1.225-2.336 3.709-1.109 5.547.769 1.156 2.039 1.781 3.332 1.781z"/></g></svg>